<?xml version="1.0" standalone="no"?>
<!DOCTYPE svg PUBLIC "-//W3C//DTD SVG 20010904//EN"
 "http://www.w3.org/TR/2001/REC-SVG-20010904/DTD/svg10.dtd">
<svg version="1.0" xmlns="http://www.w3.org/2000/svg"
 width="183.000000pt" height="183.000000pt" viewBox="0 0 183.000000 183.000000"
 preserveAspectRatio="xMidYMid meet">
<metadata>
Created by potrace 1.14, written by Peter Selinger 2001-2017
</metadata>
<g transform="translate(0.000000,183.000000) scale(0.100000,-0.100000)"
fill="#000000" stroke="none">
<path d="M740 1591 c-85 -49 -162 -95 -170 -103 -8 -7 -16 -12 -17 -10 -2 1
-13 -4 -26 -11 -12 -8 -80 -47 -152 -87 -71 -40 -144 -83 -160 -95 l-31 -23 1
-413 0 -414 87 -52 c48 -29 113 -66 145 -84 32 -18 74 -42 93 -54 56 -35 150
-85 150 -80 0 3 -26 29 -57 57 -128 118 -162 157 -191 221 -43 92 -45 172 -5
250 17 34 1 36 -32 3 -30 -30 -41 -17 -20 24 8 16 13 30 9 30 -3 0 11 23 31
51 20 28 34 53 31 56 -2 3 -21 -7 -42 -21 -21 -14 -40 -23 -42 -21 -12 12 58
122 103 161 43 38 46 44 27 44 -13 0 -37 -7 -54 -16 -29 -15 -31 -15 -24 2 25
65 114 134 231 177 30 11 55 24 55 29 0 5 -5 6 -10 3 -13 -8 -151 -8 -206 -1
-53 7 -107 30 -125 52 -13 16 -12 17 6 10 37 -15 128 -15 165 0 19 8 53 27 75
43 95 67 151 79 217 45 16 -8 33 -12 38 -9 6 3 26 -11 45 -32 19 -20 36 -35
39 -33 2 3 7 22 10 44 6 39 24 79 27 61 1 -5 3 -20 4 -32 8 -81 112 -203 172
-203 8 0 31 -18 51 -40 46 -49 110 -78 187 -84 64 -5 88 5 78 32 -5 15 -3 14
15 -2 12 -11 22 -25 22 -32 0 -7 12 -27 27 -45 22 -26 28 -44 31 -97 l4 -65
-28 15 c-16 9 -40 20 -54 26 -14 5 -37 14 -52 20 -22 9 -31 8 -50 -7 -18 -15
-34 -18 -79 -14 -36 4 -59 2 -63 -6 -4 -6 0 -12 8 -12 9 -1 22 -2 29 -3 6 0
13 -16 15 -34 2 -20 12 -38 25 -46 23 -14 78 -15 111 -1 16 7 17 6 6 -14 -15
-29 -6 -37 25 -23 15 7 25 8 25 2 0 -6 8 -10 18 -10 13 -1 11 -6 -11 -25 -33
-29 -63 -31 -111 -9 -34 17 -34 16 -80 -16 -25 -18 -60 -35 -78 -37 l-32 -3
39 40 c21 22 36 43 32 47 -4 3 -39 0 -77 -9 -68 -14 -70 -14 -64 5 5 16 2 18
-16 12 -13 -4 -31 0 -47 10 -34 23 -46 6 -46 -67 0 -10 -4 -18 -9 -18 -14 0
-28 48 -28 98 l0 47 -20 -30 c-12 -18 -20 -24 -21 -15 -7 86 -7 90 -18 90 -11
0 -27 -42 -37 -95 l-7 -40 -9 40 c-4 22 -8 57 -9 78 0 20 -4 37 -9 37 -5 0
-21 -26 -35 -57 -20 -41 -28 -74 -29 -119 -1 -41 -6 -68 -17 -80 -9 -11 -24
-33 -33 -51 l-16 -32 47 20 47 20 21 -28 c11 -15 28 -36 37 -45 17 -17 16 -19
-17 -55 -51 -56 -45 -66 25 -36 l59 26 46 -24 c50 -26 52 -31 29 -50 -20 -16
-44 -63 -44 -85 0 -12 10 -7 35 19 20 21 49 44 66 52 28 15 32 15 72 -12 23
-16 42 -34 42 -40 0 -6 -19 -25 -42 -42 -45 -32 -60 -61 -22 -41 30 17 58 22
119 24 50 2 71 12 233 105 169 98 177 104 178 134 4 166 1 796 -5 805 -4 7
-26 22 -49 33 -23 12 -44 25 -47 28 -3 4 -16 12 -30 18 -14 7 -47 25 -75 41
-355 206 -509 292 -518 292 -7 0 -82 -40 -167 -89z"/>
<path d="M1030 1124 c0 -4 11 -24 25 -44 19 -27 42 -44 90 -62 l63 -26 -11 27
c-14 30 -31 48 -72 77 -32 23 -95 41 -95 28z"/>
<path d="M1374 973 c3 -21 46 -39 71 -29 25 9 1 36 -27 31 -12 -3 -27 0 -34 6
-9 7 -12 5 -10 -8z"/>
</g>
</svg>
